HIERARCHY
ROOT hip
{
  OFFSET 0 0 0
  CHANNELS 6 Xposition Yposition Zposition Zrotation Yrotation Xrotation
  JOINT abdomen
  {
    OFFSET 0 20.6881 -0.73152
    CHANNELS 3 Zrotation Xrotation Yrotation
    JOINT chest
    {
      OFFSET 0 11.7043 -0.48768
      CHANNELS 3 Zrotation Xrotation Yrotation
      JOINT neck
      {
        OFFSET 0 22.1894 -2.19456
        CHANNELS 3 Zrotation Xrotation Yrotation
        JOINT head
        {
          OFFSET -0.24384 7.07133 1.2192
          CHANNELS 3 Zrotation Xrotation Yrotation
          JOINT leftEye
          {
            OFFSET 4.14528 8.04674 8.04672
            CHANNELS 3 Zrotation Xrotation Yrotation
            End Site
            {
              OFFSET 1 0 0
            }
          }
          JOINT rightEye
          {
            OFFSET -3.6576 8.04674 8.04672
            CHANNELS 3 Zrotation Xrotation Yrotation
            End Site
            {
              OFFSET 1 0 0
            }
          }
        }
      }
      JOINT rCollar
      {
        OFFSET -2.68224 19.2634 -4.8768
        CHANNELS 3 Zrotation Xrotation Yrotation
        JOINT rShldr
        {
          OFFSET -8.77824 -1.95073 1.46304
          CHANNELS 3 Zrotation Xrotation Yrotation
          JOINT rForeArm
          {
            OFFSET -28.1742 -1.7115 0.48768
            CHANNELS 3 Zrotation Xrotation Yrotation
            JOINT rHand
            {
              OFFSET -22.5879 0.773209 7.07136
              CHANNELS 3 Zrotation Xrotation Yrotation
              JOINT rThumb1
              {
                OFFSET -1.2192 -0.487915 3.41376
                CHANNELS 3 Zrotation Xrotation Yrotation
                JOINT rThumb2
                {
                  OFFSET -3.37035 -0.52449 3.41376
                  CHANNELS 3 Zrotation Xrotation Yrotation
                  End Site
                  {
                    OFFSET -1.78271 -1.18214 1.43049
                  }
                }
              }
              JOINT rIndex1
              {
                OFFSET -7.75947 0.938293 5.60832
                CHANNELS 3 Zrotation Xrotation Yrotation
                JOINT rIndex2
                {
                  OFFSET -2.54057 -0.884171 1.56538
                  CHANNELS 3 Zrotation Xrotation Yrotation
                  End Site
                  {
                    OFFSET -1.62519 -0.234802 1.16502
                  }
                }
              }
              JOINT rMid1
              {
                OFFSET -8.24714 1.18213 3.41376
                CHANNELS 3 Zrotation Xrotation Yrotation
                JOINT rMid2
                {
                  OFFSET -3.10165 -0.590103 1.0647
                  CHANNELS 3 Zrotation Xrotation Yrotation
                  End Site
                  {
                    OFFSET -2.48547 -0.328903 0.83742
                  }
                }
              }
              JOINT rRing1
              {
                OFFSET -8.82822 0.546677 1.51678
                CHANNELS 3 Zrotation Xrotation Yrotation
                JOINT rRing2
                {
                  OFFSET -2.60934 -0.819778 -0.0198488
                  CHANNELS 3 Zrotation Xrotation Yrotation
                  End Site
                  {
                    OFFSET -2.33842 -0.294052 0.168128
                  }
                }
              }
              JOINT rPinky1
              {
                OFFSET -8.27202 -0.0477905 -0.4584
                CHANNELS 3 Zrotation Xrotation Yrotation
                JOINT rPinky2
                {
                  OFFSET -1.82734 -0.647385 -0.700984
                  CHANNELS 3 Zrotation Xrotation Yrotation
                  End Site
                  {
                    OFFSET -1.69225 -0.51767 -0.607171
                  }
                }
              }
            }
          }
        }
      }
      JOINT lCollar
      {
        OFFSET 2.68224 19.2634 -4.8768
        CHANNELS 3 Zrotation Xrotation Yrotation
        JOINT lShldr
        {
          OFFSET 8.77824 -1.95073 1.46304
          CHANNELS 3 Zrotation Xrotation Yrotation
          JOINT lForeArm
          {
            OFFSET 28.1742 -1.7115 0.48768
            CHANNELS 3 Zrotation Xrotation Yrotation
            JOINT lHand
            {
              OFFSET 22.5879 0.773209 7.07136
              CHANNELS 3 Zrotation Xrotation Yrotation
              JOINT lThumb1
              {
                OFFSET 1.2192 -0.487915 3.41376
                CHANNELS 3 Zrotation Xrotation Yrotation
                JOINT lThumb2
                {
                  OFFSET 3.37035 -0.52449 3.41376
                  CHANNELS 3 Zrotation Xrotation Yrotation
                  End Site
                  {
                    OFFSET 1.78271 -1.18214 1.43049
                  }
                }
              }
              JOINT lIndex1
              {
                OFFSET 7.75947 0.938293 5.60832
                CHANNELS 3 Zrotation Xrotation Yrotation
                JOINT lIndex2
                {
                  OFFSET 2.54057 -0.884171 1.56538
                  CHANNELS 3 Zrotation Xrotation Yrotation
                  End Site
                  {
                    OFFSET 1.62519 -0.234802 1.16502
                  }
                }
              }
              JOINT lMid1
              {
                OFFSET 8.24714 1.18213 3.41376
                CHANNELS 3 Zrotation Xrotation Yrotation
                JOINT lMid2
                {
                  OFFSET 3.10165 -0.590103 1.0647
                  CHANNELS 3 Zrotation Xrotation Yrotation
                  End Site
                  {
                    OFFSET 2.48547 -0.328903 0.83742
                  }
                }
              }
              JOINT lRing1
              {
                OFFSET 8.82822 0.546677 1.51678
                CHANNELS 3 Zrotation Xrotation Yrotation
                JOINT lRing2
                {
                  OFFSET 2.60934 -0.819778 -0.0198488
                  CHANNELS 3 Zrotation Xrotation Yrotation
                  End Site
                  {
                    OFFSET 2.33842 -0.294052 0.168128
                  }
                }
              }
              JOINT lPinky1
              {
                OFFSET 8.27202 -0.0477905 -0.4584
                CHANNELS 3 Zrotation Xrotation Yrotation
                JOINT lPinky2
                {
                  OFFSET 1.82734 -0.647385 -0.700984
                  CHANNELS 3 Zrotation Xrotation Yrotation
                  End Site
                  {
                    OFFSET 1.69225 -0.51767 -0.607171
                  }
                }
              }
            }
          }
        }
      }
    }
  }
  JOINT rButtock
  {
    OFFSET -8.77824 4.35084 1.2192
    CHANNELS 3 Zrotation Xrotation Yrotation
    JOINT rThigh
    {
      OFFSET 0 -1.70687 -2.19456
      CHANNELS 3 Zrotation Xrotation Yrotation
      JOINT rShin
      {
        OFFSET 0 -36.8199 0.73152
        CHANNELS 3 Zrotation Xrotation Yrotation
        JOINT rFoot
        {
          OFFSET 0.73152 -45.1104 -5.12064
          CHANNELS 3 Zrotation Xrotation Yrotation
          End Site
          {
            OFFSET -1.1221 -3.69964 12.103
          }
        }
      }
    }
  }
  JOINT lButtock
  {
    OFFSET 8.77824 4.35084 1.2192
    CHANNELS 3 Zrotation Xrotation Yrotation
    JOINT lThigh
    {
      OFFSET 0 -1.70687 -2.19456
      CHANNELS 3 Zrotation Xrotation Yrotation
      JOINT lShin
      {
        OFFSET 0 -36.8199 0.73152
        CHANNELS 3 Zrotation Xrotation Yrotation
        JOINT lFoot
        {
          OFFSET -0.73152 -45.1104 -5.12064
          CHANNELS 3 Zrotation Xrotation Yrotation
          End Site
          {
            OFFSET 1.1221 -3.69964 12.103
          }
        }
      }
    }
  }
}
MOTION
Frames:	4
Frame Time:	0.00833333
0.72359353 56.812515 -15.233609 -11.862498 -47.413303 10.569439 2.1290388 14.10173 14.25376 -0.45592043 -13.94773 3.9833803 -0.009084908 13.276224 8.032234 6.000814 -22.178448 16.868576 0.09199925 -0.046403944 -0.04107032 0.0015591552 0.05279027 -0.10953578 -0.057300523 0.013419568 0.094348975 63.627068 79.42692 0.27340096 -26.646584 -44.421196 92.32148 -35.56074 -78.83458 -44.322937 0.0016754257 0.03985598 0.003182257 0.023828117 -0.093458645 -0.06274136 0.028845826 -0.09404347 0.06923197 7.759213 5.407366 0.38211995 -0.019963348 0.1337189 -0.08599289 2.8680947 0.93853176 0.045642905 -0.038411614 -0.05603575 0.0582752 10.261298 0.6489983 0.08063503 0.010257795 0.113418154 0.01219004 2.1496727 -0.6919986 -0.18242691 0.01065208 -0.025163941 -0.055615027 -66.417656 12.136158 -42.63761 28.215488 -36.193516 -76.93778 0.6011662 20.46411 -2.8370252 -0.07808859 0.006372881 0.0032088833 -0.052421577 -0.006296395 -0.032741033 0.08532874 0.08138143 0.0010881335 -7.728924 5.476064 -0.39912337 -0.09994117 0.030246712 -0.019980488 -2.9253447 0.9390238 -0.09470489 0.08372143 0.014571692 0.024660295 -10.239536 0.6653531 -0.01744654 -0.009368679 0.06480675 -0.010578131 -2.1852713 -0.68428093 0.25427303 -0.03297578 0.0803003 0.06404637 -27.52694 -33.38741 -40.075638 -156.19989 86.27716 164.0417 -10.618398 -23.507814 -17.410444 -0.012485365 0.039216597 0.09024929 88.12787 -51.201252 79.88011 8.634556 84.60102 -12.39126 0.67276603 8.3926325 13.717334
0.78598005 56.965214 -15.224305 -12.14795 -47.476307 10.875691 2.2389193 14.234983 14.338643 -0.56295353 -13.928086 3.9247065 -0.09792918 13.1912 7.9327545 6.0345616 -22.086588 16.761055 0.0719184 -0.011048888 -0.018178731 -0.0048273928 0.045749735 -0.091497324 -0.0566798 0.038504053 0.08009057 64.91195 79.42032 1.9972839 -26.624292 -44.479893 92.30739 -35.531567 -78.8463 -43.192184 0.00071632577 0.031210795 0.006167959 -0.0025032016 -0.071130805 -0.05658877 0.043477073 -0.06597636 0.057614196 7.764367 5.425836 0.3983196 -0.02267454 0.07508775 -0.06846211 2.8672285 0.9424927 0.06355817 -0.03488193 -0.03783356 0.04324176 10.253083 0.68386537 0.048212275 0.024826096 0.07684614 0.023861388 2.1600862 -0.7086009 -0.18440706 0.022572707 -0.0054537114 -0.03873092 -66.77145 12.352212 -42.762657 28.301882 -36.073235 -77.113106 0.60459113 20.140482 -3.0010767 -0.023479536 0.0062997057 0.0026556866 -0.046921797 0.0046215323 -0.049124997 0.059919115 0.06058248 0.024881525 -7.718583 5.4931374 -0.38947487 -0.08607949 -0.0018163471 0.005112387 -2.9048517 0.94319856 -0.112532124 0.092484675 0.006550849 0.01176225 -10.267497 0.6696524 -0.031099627 -0.02679834 0.055884946 0.0001657893 -2.2135425 -0.6732358 0.24564497 -0.021228276 0.04069056 0.048308723 -27.686892 -33.84135 -39.934177 -126.42657 76.55723 140.36249 -10.626425 -23.396927 -17.31219 0.013133226 0.04557706 0.042555254 88.01037 -50.656197 79.50872 10.37491 84.49089 -11.785905 0.77751553 8.080966 13.756834
0.73290974 57.297165 -15.153058 -12.119386 -47.746914 11.083643 2.2819638 14.406903 14.425303 -0.6026658 -13.948497 3.8722153 -0.1307206 13.122759 7.87283 6.102914 -21.957872 16.702076 0.051716615 0.019670816 0.00016598673 0.00053705554 0.043615393 -0.08014606 -0.048954666 0.05292371 0.06678523 64.70039 79.41622 2.356616 -26.69138 -44.461105 92.32927 -35.769234 -79.09927 -43.274487 0.009410861 0.02158569 0.019450523 -0.022535821 -0.05914462 -0.05033716 0.04436003 -0.054031868 0.04454669 7.7473106 5.452018 0.4127747 -0.013631993 0.024963306 -0.053035762 2.8671272 0.9511627 0.071329676 -0.03637928 -0.03271738 0.039088693 10.245309 0.70877033 0.037096307 0.036815926 0.056584664 0.029244326 2.1720629 -0.6980295 -0.17988905 0.020403843 0.02442705 -0.035181742 -66.89073 12.377778 -42.77652 28.307756 -36.115284 -77.22795 0.7004921 20.061113 -3.0478678 -0.00280448 0.010924342 0.012902717 -0.040218227 0.014259751 -0.05904945 0.042643514 0.05612398 0.025805885 -7.714431 5.5063963 -0.38374904 -0.067425795 -0.018560389 0.018499337 -2.8993747 0.9477582 -0.12798816 0.0954811 -0.0021296681 0.017850483 -10.2770405 0.6765416 -0.034422413 -0.037692048 0.055760965 -0.001476019 -2.2425878 -0.6864211 0.23579673 -0.028029507 0.007881025 0.024177482 -27.7705 -34.219707 -39.952354 39.785915 89.38821 27.76525 -10.699772 -23.388071 -17.03236 0.034455106 0.041944712 0.012051098 88.036385 -50.19916 79.42691 11.630308 84.39888 -10.617225 0.87642103 7.8806167 13.981841
0.5935427 57.43423 -15.065943 -12.160845 -47.997234 11.350215 2.2617242 14.534775 14.378888 -0.63070756 -14.070394 3.8344407 -0.05763983 13.139813 7.9000297 6.129025 -21.839956 16.831837 0.043389052 0.03211312 0.012346942 0.009480092 0.045032687 -0.073641285 -0.047502927 0.06619955 0.06283539 63.91573 79.41265 1.7795023 -26.745262 -44.464485 92.41408 -35.886658 -79.26125 -44.03166 0.014539437 0.014152432 0.03865194 -0.03158597 -0.050551586 -0.046432316 0.04625359 -0.042788893 0.036349278 7.728486 5.47316 0.4294907 -0.010675503 -0.009905657 -0.037531056 2.871371 0.96346205 0.074697465 -0.037573874 -0.036226213 0.03539342 10.239828 0.72199774 0.04163074 0.04682849 0.044152666 0.036030885 2.1913948 -0.68109673 -0.18554801 0.006565515 0.04657186 -0.036897615 -66.915054 12.143775 -42.660015 28.42052 -36.174618 -77.40999 0.76247615 20.10316 -2.999396 0.0031909705 0.013927663 0.024480704 -0.038131226 0.02111175 -0.07047536 0.028059257 0.058460828 0.017788177 -7.7151275 5.503385 -0.38717547 -0.058562946 -0.031853966 0.02176284 -2.8998587 0.9468268 -0.13025223 0.0972642 -0.009266033 0.029844606 -10.275171 0.6771225 -0.029923242 -0.037923124 0.05582746 -0.0047076447 -2.2682083 -0.7100074 0.22907947 -0.044646397 -0.014152047 0.0019945472 -27.805067 -34.529896 -39.93001 -179.85156 89.00898 162.77531 -10.678632 -23.501762 -17.048145 0.052118212 0.039467454 0.000496624 88.077934 -49.879982 79.6113 11.985727 84.35404 -10.352254 0.9506761 7.6478786 14.008444
